<svg xmlns="http://www.w3.org/2000/svg" viewBox="0 0 24 24">
  <path d="M15,8c-0.178,0-0.353,0.014-0.528,0.027C14.011,5.42,11.739,3.437,9,3.437c-3.072,0-5.563,2.49-5.563,5.563c0,2.739,1.982,5.011,4.589,5.472C8.014,14.647,8,14.822,8,15c0,3.866,3.134,7,7,7s7-3.134,7-7C22,11.134,18.866,8,15,8z" opacity=".35" fill="#969696" />
  <path d="M9,2C5.134,2,2,5.134,2,9c0,3.549,2.644,6.475,6.069,6.931C8.028,15.626,8,15.316,8,15c0-0.66,0.098-1.297,0.269-1.902c-0.426-0.058-0.791-0.184-1.088-0.352c-0.382-0.217-0.482-0.724-0.234-1.086l0.023-0.033c0.214-0.313,0.632-0.443,0.968-0.267c0.198,0.104,0.441,0.183,0.723,0.183c0.123,0,0.212-0.034,0.299-0.068c0.136-0.232,0.285-0.455,0.446-0.67c0.001-0.014,0.006-0.033,0.006-0.045c0-1.28-2.557-0.835-2.557-3.297c0-1.113,0.618-1.983,1.568-2.299v-0.46c0-0.313,0.254-0.568,0.568-0.568c0.313,0,0.568,0.254,0.568,0.568v0.341c0.362,0.034,0.66,0.121,0.9,0.229c0.436,0.197,0.579,0.746,0.303,1.137c-0.216,0.305-0.619,0.448-0.96,0.294C9.656,6.638,9.485,6.592,9.292,6.592c-0.195,0-0.762,0.076-0.762,0.796c0,0.949,1.557,0.973,2.255,2.033C11.959,8.533,13.415,8,15,8c0.316,0,0.626,0.028,0.931,0.069C15.475,4.644,12.549,2,9,2z" fill="#969696" />
  <path d="M20.261,2.626l-1.947,1.928c-0.248,0.245-0.248,0.646,0,0.891l1.947,1.928C20.535,7.645,21,7.451,21,7.065V2.935C21,2.549,20.535,2.355,20.261,2.626z" fill="#969696" />
  <path d="M3.739,21.374l1.947-1.928c0.248-0.245,0.248-0.646,0-0.891l-1.947-1.928C3.465,16.355,3,16.549,3,16.935v4.131C3,21.451,3.465,21.645,3.739,21.374z" fill="#969696" />
  <path d="M15.902,12.415c-0.947,0-1.238,0.769-1.33,1.148h1.392c0.348,0,0.602,0.329,0.514,0.666v0c-0.061,0.233-0.272,0.396-0.514,0.396h-1.627c-0.015,0.064-0.022,0.307-0.022,0.364s0.003,0.296,0.01,0.354h1.273c0.342,0,0.594,0.318,0.517,0.651l0,0c-0.056,0.24-0.27,0.41-0.517,0.41h-1.102c0.079,0.358,0.378,1.115,1.33,1.115c0.106,0,0.21-0.009,0.309-0.024c0.377-0.057,0.724,0.219,0.775,0.597l0.008,0.059c0.049,0.361-0.186,0.702-0.543,0.775C16.171,18.969,15.918,19,15.623,19c-2.295,0-2.76-2.195-2.831-2.596h-0.306c-0.344,0-0.597-0.322-0.515-0.656v0c0.058-0.238,0.271-0.405,0.515-0.405h0.21c-0.007-0.058-0.01-0.296-0.01-0.354c0-0.05,0.003-0.301,0.01-0.364h-0.21c-0.344,0-0.596-0.322-0.515-0.655l0-0.001c0.058-0.238,0.271-0.405,0.515-0.405h0.327C13.014,12.705,13.607,11,15.837,11c0.19,0,0.395,0.022,0.586,0.054c0.403,0.067,0.657,0.47,0.553,0.864v0c-0.087,0.33-0.398,0.552-0.737,0.515C16.141,12.422,16.029,12.415,15.902,12.415z" fill="#969696" />
</svg>