<svg xmlns="http://www.w3.org/2000/svg" viewBox="0 0 24 24">
  <path d="M20,14.62V8l-6-6H7C5.343,2,4,3.343,4,5v14c0,1.657,1.343,3,3,3h8.668c0.824,0.914,2.005,1.5,3.332,1.5c2.485,0,4.5-2.015,4.5-4.5C23.5,16.86,22.002,15.076,20,14.62z" opacity=".35" fill="#969696" />
  <path d="M14,6V2l6,6h-4C14.895,8,14,7.105,14,6z" fill="#969696" />
  <path d="M12,13H8c-0.553,0-1-0.448-1-1s0.447-1,1-1h4c0.553,0,1,0.448,1,1S12.553,13,12,13z" fill="#969696" />
  <path d="M12,17H8c-0.553,0-1-0.448-1-1s0.447-1,1-1h4c0.553,0,1,0.448,1,1S12.553,17,12,17z" fill="#969696" />
  <circle cx="15" cy="12" r="1" fill="#969696" />
  <circle cx="16" cy="17" r="1" fill="#969696" />
  <path d="M19,14c-2.76,0-5,2.24-5,5s2.24,5,5,5s5-2.24,5-5S21.76,14,19,14z M19.43,22.14v0.4c0,0.26-0.2,0.46-0.45,0.46c-0.26,0-0.46-0.2-0.46-0.46v-0.32c-0.38-0.04-0.7-0.15-0.95-0.3c-0.31-0.17-0.39-0.58-0.19-0.87l0.02-0.03c0.17-0.25,0.5-0.35,0.77-0.21c0.16,0.08,0.36,0.15,0.59,0.15c0.51,0,0.6-0.44,0.6-0.63c0-1.03-2.06-0.68-2.06-2.65c0-0.9,0.5-1.6,1.26-1.85v-0.37c0-0.26,0.21-0.46,0.46-0.46s0.46,0.2,0.46,0.46v0.27c0.29,0.03,0.53,0.1,0.72,0.18c0.35,0.16,0.47,0.6,0.24,0.92c-0.17,0.24-0.49,0.36-0.77,0.24c-0.11-0.06-0.25-0.09-0.41-0.09c-0.15,0-0.61,0.06-0.61,0.64c0,0.98,2.08,0.72,2.08,2.61C20.73,21.11,20.28,21.88,19.43,22.14z" fill="#969696" />
</svg>