<svg xmlns="http://www.w3.org/2000/svg" viewBox="0 0 24 24">
  <path d="M4,19V6c0-1.657,1.343-3,3-3h10c1.657,0,3,1.343,3,3v13c0,1.657-1.343,3-3,3H7 C5.343,22,4,20.657,4,19z" opacity=".35" fill="#969696" />
  <circle cx="8" cy="11" r="1" fill="#969696" />
  <circle cx="8" cy="15" r="1" fill="#969696" />
  <path d="M16,8h-4c-0.553,0-1-0.448-1-1s0.447-1,1-1h4c0.553,0,1,0.448,1,1S16.553,8,16,8z" fill="#969696" />
  <path d="M16,12h-4c-0.553,0-1-0.448-1-1s0.447-1,1-1h4c0.553,0,1,0.448,1,1S16.553,12,16,12z" fill="#969696" />
  <circle cx="8" cy="7" r="1" fill="#969696" />
  <path d="M20.138,23.624c-0.827,0.595-1.987,0.42-2.707-0.3l-5.832-5.832C11.216,17.108,11,16.588,11,16.045l0-1.259 C11,14.352,11.352,14,11.786,14l1.259,0c0.542,0,1.063,0.216,1.446,0.599l5.909,5.909C21.279,21.387,21.192,22.865,20.138,23.624z" fill="#969696" />
</svg>