<svg xmlns="http://www.w3.org/2000/svg" viewBox="0 0 24 24">
  <path d="M19,14c-2.76,0-5,2.24-5,5s2.24,5,5,5s5-2.24,5-5S21.76,14,19,14z M19.43,22.14v0.4c0,0.26-0.2,0.46-0.45,0.46c-0.26,0-0.46-0.2-0.46-0.46v-0.32c-0.38-0.04-0.7-0.15-0.95-0.3c-0.31-0.17-0.39-0.58-0.19-0.87l0.02-0.03c0.17-0.25,0.5-0.35,0.77-0.21c0.16,0.08,0.36,0.15,0.59,0.15c0.51,0,0.6-0.44,0.6-0.63c0-1.03-2.06-0.68-2.06-2.65c0-0.9,0.5-1.6,1.26-1.85v-0.37c0-0.26,0.21-0.46,0.46-0.46s0.46,0.2,0.46,0.46v0.27c0.29,0.03,0.53,0.1,0.72,0.18c0.35,0.16,0.47,0.6,0.24,0.92c-0.17,0.24-0.49,0.36-0.77,0.24c-0.11-0.06-0.25-0.09-0.41-0.09c-0.15,0-0.61,0.06-0.61,0.64c0,0.98,2.08,0.72,2.08,2.61C20.73,21.11,20.28,21.88,19.43,22.14z" fill="#969696" />
  <path d="M10,13c-0.186,0-3.814,0-4,0c-0.552,0-1,0.448-1,1s0.448,1,1,1c0.186,0,3.814,0,4,0c0.552,0,1-0.448,1-1S10.552,13,10,13z" fill="#969696" />
  <rect width="20" height="3" x="2" y="8" fill="#969696" />
  <path d="M22,15.023V7c0-1.657-1.343-3-3-3H5C3.343,4,2,5.343,2,7v10c0,1.657,1.343,3,3,3h9.101c0.463,2.282,2.48,4,4.899,4c2.761,0,5-2.239,5-5C24,17.37,23.208,15.935,22,15.023z" opacity=".35" fill="#969696" />
</svg>