<svg xmlns="http://www.w3.org/2000/svg" viewBox="0 0 24 24">
  <path d="M19,20H5c-1.657,0-3-1.343-3-3V7c0-1.657,1.343-3,3-3h14c1.657,0,3,1.343,3,3v10C22,18.657,20.657,20,19,20z" opacity=".35" fill="#969696" />
  <rect width="20" height="3" x="2" y="8" fill="#969696" />
  <path d="M23.998,16.987c0.031-0.505-0.359-0.968-0.908-1.051C20.807,15.595,20.5,14,19,14s-1.753,1.595-4.036,1.936c-0.549,0.082-0.939,0.545-0.908,1.051C14.291,20.803,15.444,22.615,19,24C22.557,22.615,23.763,20.802,23.998,16.987z" fill="#969696" />
</svg>