<svg xmlns="http://www.w3.org/2000/svg" viewBox="0 0 24 24">
  <path d="M20.848,16.653C21.581,15.262,22,13.681,22,12c0-5.523-4.477-10-10-10C6.477,2,2,6.477,2,12c0,5.523,4.477,10,10,10c1.681,0,3.262-0.419,4.653-1.152C17.202,21.544,18.044,22,19,22c1.657,0,3-1.343,3-3C22,18.044,21.544,17.202,20.848,16.653z" opacity=".35" fill="#969696" />
  <path d="M23,19c0-0.38,0.171-0.719,0.44-0.946c0.239-0.203,0.344-0.525,0.234-0.819c-0.194-0.513-0.469-0.986-0.81-1.402c-0.192-0.234-0.514-0.323-0.796-0.215c-0.338,0.13-0.729,0.114-1.068-0.082c-0.34-0.196-0.55-0.528-0.605-0.887c-0.045-0.294-0.278-0.529-0.571-0.579C19.556,14.024,19.281,14,19,14s-0.556,0.024-0.823,0.07c-0.293,0.05-0.526,0.285-0.571,0.579C17.55,15.008,17.34,15.34,17,15.536c-0.339,0.196-0.729,0.212-1.068,0.082c-0.282-0.109-0.604-0.019-0.796,0.215c-0.342,0.417-0.617,0.889-0.81,1.402c-0.111,0.294-0.006,0.616,0.234,0.819C14.829,18.281,15,18.62,15,19c0,0.38-0.171,0.719-0.44,0.946c-0.239,0.203-0.344,0.525-0.234,0.819c0.194,0.513,0.469,0.986,0.81,1.402c0.192,0.234,0.514,0.323,0.796,0.215c0.338-0.13,0.729-0.114,1.068,0.082c0.34,0.196,0.55,0.528,0.605,0.887c0.045,0.294,0.278,0.529,0.571,0.579C18.444,23.976,18.719,24,19,24s0.556-0.024,0.823-0.07c0.293-0.05,0.526-0.285,0.571-0.579c0.055-0.36,0.265-0.691,0.605-0.887c0.339-0.196,0.729-0.212,1.068-0.082c0.282,0.109,0.604,0.019,0.796-0.215c0.342-0.417,0.617-0.889,0.81-1.402c0.111-0.293,0.006-0.616-0.234-0.819C23.171,19.719,23,19.38,23,19z M19,21c-1.105,0-2-0.896-2-2s0.895-2,2-2s2,0.896,2,2S20.105,21,19,21z" fill="#969696" />
  <path d="M12.75,19c-0.483-0.723-0.607-1.643-0.295-2.471c0.269-0.713,0.651-1.374,1.135-1.964c0.363-0.443,0.85-0.743,1.388-0.889c-0.683-2.282-3.61-2.106-3.61-3.673c0-1.044,0.821-1.154,1.105-1.154c0.28,0,0.528,0.067,0.738,0.161c0.494,0.223,1.079,0.016,1.392-0.426c0.401-0.567,0.194-1.364-0.439-1.65c-0.347-0.156-0.78-0.282-1.305-0.332V6.108c0-0.455-0.369-0.823-0.823-0.823c-0.454,0-0.823,0.369-0.823,0.823v0.668c-1.379,0.459-2.275,1.72-2.275,3.334c0,3.57,3.709,2.925,3.709,4.781c0,0.357-0.169,1.136-1.089,1.136c-0.409,0-0.762-0.115-1.049-0.266c-0.488-0.255-1.093-0.067-1.404,0.388l-0.033,0.048c-0.359,0.525-0.214,1.261,0.339,1.575c0.465,0.264,1.034,0.469,1.72,0.541v0.578c0,0.455,0.369,0.823,0.823,0.823c0.208,0,0.393-0.084,0.538-0.212C12.564,19.329,12.644,19.158,12.75,19z" fill="#969696" />
</svg>