<svg xmlns="http://www.w3.org/2000/svg" viewBox="0 0 24 24">
  <path d="M14,6V2l6,6h-4C14.895,8,14,7.105,14,6z" fill="#969696" />
  <path d="M22.325,16.673c-0.631-0.629-1.601-0.712-2.325-0.255V8l-6-6H7C5.343,2,4,3.343,4,5v14c0,1.657,1.343,3,3,3h10c0.118,0,0.229-0.021,0.344-0.035c0.329,0.261,0.73,0.41,1.156,0.41c0.501,0,0.972-0.195,1.326-0.549l2.5-2.5C23.056,18.595,23.056,17.405,22.325,16.673z" opacity=".35" fill="#969696" />
  <path d="M8,12c0,0.552,0.448,1,1,1h6c0.552,0,1-0.448,1-1s-0.448-1-1-1H9C8.448,11,8,11.448,8,12z" fill="#969696" />
  <path d="M13.226,15.046C13.151,15.028,13.08,15,13,15H9c-0.553,0-1,0.448-1,1s0.447,1,1,1h3.294C12.503,16.296,12.82,15.638,13.226,15.046z" fill="#969696" />
  <path d="M19,14c-2.761,0-5,2.239-5,5s2.239,5,5,5s5-2.239,5-5S21.761,14,19,14z M21.619,18.619l-2.5,2.5c-0.165,0.165-0.385,0.256-0.619,0.256s-0.454-0.091-0.619-0.256l-1.5-1.5c-0.341-0.342-0.341-0.896,0-1.238c0.341-0.34,0.896-0.34,1.237,0l0.881,0.882l1.881-1.882c0.341-0.34,0.896-0.34,1.237,0C21.96,17.723,21.96,18.277,21.619,18.619z" fill="#969696" />
</svg>